HIERARCHY
ROOT Hips
{
	OFFSET 0.00000 0.00000 0.00000
	CHANNELS 6 Xposition Yposition Zposition Zrotation Yrotation Xrotation 
	JOINT LHipJoint
	{
		OFFSET 0 0 0
		CHANNELS 3 Zrotation Yrotation Xrotation
		JOINT LeftUpLeg
		{
			OFFSET 1.53139 -1.83434 0.76626
			CHANNELS 3 Zrotation Yrotation Xrotation
			JOINT LeftLeg
			{
				OFFSET 2.56112 -7.03663 0.00000
				CHANNELS 3 Zrotation Yrotation Xrotation
				JOINT LeftFoot
				{
					OFFSET 2.59983 -7.14299 0.00000
					CHANNELS 3 Zrotation Yrotation Xrotation
					JOINT LeftToeBase
					{
						OFFSET 0.13742 -0.37757 2.00054
						CHANNELS 3 Zrotation Yrotation Xrotation
						End Site
						{
							OFFSET 0.00000 -0.00000 1.02897
						}
					}
				}
			}
		}
	}
	JOINT RHipJoint
	{
		OFFSET 0 0 0
		CHANNELS 3 Zrotation Yrotation Xrotation
		JOINT RightUpLeg
		{
			OFFSET -1.40122 -1.83435 0.76627
			CHANNELS 3 Zrotation Yrotation Xrotation
			JOINT RightLeg
			{
				OFFSET -2.54052 -6.98003 0.00000
				CHANNELS 3 Zrotation Yrotation Xrotation
				JOINT RightFoot
				{
					OFFSET -2.63179 -7.23079 0.00000
					CHANNELS 3 Zrotation Yrotation Xrotation
					JOINT RightToeBase
					{
						OFFSET -0.24131 -0.66299 2.03908
						CHANNELS 3 Zrotation Yrotation Xrotation
						End Site
						{
							OFFSET -0.00000 -0.00000 1.07391
						}
					}
				}
			}
		}
	}
	JOINT LowerBack
	{
		OFFSET 0 0 0
		CHANNELS 3 Zrotation Yrotation Xrotation
		JOINT Spine
		{
			OFFSET 0.01174 2.10302 -0.29778
			CHANNELS 3 Zrotation Yrotation Xrotation
			JOINT Spine1
			{
				OFFSET 0.00772 2.13227 -0.01247
				CHANNELS 3 Zrotation Yrotation Xrotation
				JOINT Neck
				{
					OFFSET 0 0 0
					CHANNELS 3 Zrotation Yrotation Xrotation
					JOINT Neck1
					{
						OFFSET -0.09219 1.60848 0.31481
						CHANNELS 3 Zrotation Yrotation Xrotation
						JOINT Head
						{
							OFFSET 0.13974 1.65456 -0.31134
							CHANNELS 3 Zrotation Yrotation Xrotation
							End Site
							{
								OFFSET 0.04742 1.69515 -0.14578
							}
						}
					}
				}
				JOINT LeftShoulder
				{
					OFFSET 0 0 0
					CHANNELS 3 Zrotation Yrotation Xrotation
					JOINT LeftArm
					{
						OFFSET 3.24909 1.02882 -0.23993
						CHANNELS 3 Zrotation Yrotation Xrotation
						JOINT LeftForeArm
						{
							OFFSET 5.32955 -0.00000 -0.00000
							CHANNELS 3 Zrotation Yrotation Xrotation
							JOINT LeftHand
							{
								OFFSET 3.69232 -0.00000 -0.00000
								CHANNELS 3 Zrotation Yrotation Xrotation
								JOINT LeftFingerBase
								{
									OFFSET 0 0 0
									CHANNELS 3 Zrotation Yrotation Xrotation
									JOINT LeftHandIndex1
									{
										OFFSET 0.53660 -0.00000 -0.00000
										CHANNELS 3 Zrotation Yrotation Xrotation
										End Site
										{
											OFFSET 0.43262 -0.00000 -0.00000
										}
									}
								}
								JOINT LThumb
								{
									OFFSET 0 0 0
									CHANNELS 3 Zrotation Yrotation Xrotation
									End Site
									{
										OFFSET 0.43922 -0.00000 0.43922
									}
								}
							}
						}
					}
				}
				JOINT RightShoulder
				{
					OFFSET 0 0 0
					CHANNELS 3 Zrotation Yrotation Xrotation
					JOINT RightArm
					{
						OFFSET -3.21387 0.93002 -0.34594
						CHANNELS 3 Zrotation Yrotation Xrotation
						JOINT RightForeArm
						{
							OFFSET -5.23431 -0.00000 0.00000
							CHANNELS 3 Zrotation Yrotation Xrotation
							JOINT RightHand
							{
								OFFSET -3.55301 -0.00000 -0.00000
								CHANNELS 3 Zrotation Yrotation Xrotation
								JOINT RightFingerBase
								{
									OFFSET 0 0 0
									CHANNELS 3 Zrotation Yrotation Xrotation
									JOINT RightHandIndex1
									{
										OFFSET -0.77252 -0.00000 -0.00000
										CHANNELS 3 Zrotation Yrotation Xrotation
										End Site
										{
											OFFSET -0.62283 -0.00000 -0.00000
										}
									}
								}
								JOINT RThumb
								{
									OFFSET 0 0 0
									CHANNELS 3 Zrotation Yrotation Xrotation
									End Site
									{
										OFFSET -0.63234 -0.00000 0.63234
									}
								}
							}
						}
					}
				}
			}
		}
	}
}
MOTION
Frames: 6
Frame Time: .0083333
16.7269 17.8861 -9.4231 0 0 0 0 0 0 -21 0 0 0 0 0 0 0 0 0 0 0 0 0 0 21 0 0 0 0 0 0 0 0 0 0 0 0 0 0 0 0 0 0 0 0 0 0 -16 0 0 21 0 0 11 0 0 0 -8 0 0 0 0 0 0 0 0 0 0 0 0 0 0 0 0 0 0 0 0 8 0 0 0 0 0 0 0 0 0 0 0 0 0 0 0 0 0
16.7269 17.8861 -9.4231 2.7104 -13.8308 -0.5688 0.0000 0.0000 0.0000 -24.4436 -3.4575 -3.3787 1.3762 7.4238 20.9771 0.4823 -2.2444 -12.5372 0.1199 -2.2327 -6.1492 0.0000 0.0000 0.0000 21.2288 5.5613 -5.0579 -2.7258 -10.2374 29.7488 -1.1568 1.0360 -20.0176 -0.0268 -1.0562 2.9033 -2.2048 -1.2465 5.1739 0.1410 -1.8298 -2.8062 1.5666 -0.8169 -5.7463 -16.5293 -10.5763 -13.9481 10.9194 -13.7919 22.3268 4.5847 -6.5772 11.5373 -0.0000 -0.0000 0.0000 -89.2097 5.1800 13.1184 16.9939 -26.8498 -4.0846 -0.0000 -0.0000 6.8251 20.0235 21.0920 7.4716 -7.1250 0.0000 -0.0000 -8.8254 52.0871 -1.5498 -0.0000 -0.0000 0.0000 89.8994 -5.2383 18.9354 -14.3559 23.2412 -2.9671 0.0000 0.0000 7.4507 -15.6663 7.8336 -2.1891 7.1250 -0.0000 -0.0000 8.1079 -21.8770 4.5475
16.7222 17.8860 -9.4192 2.8293 -13.8598 -0.5658 0.0000 0.0000 0.0000 -24.5658 -3.4426 -3.3675 1.3692 7.4057 20.9229 0.4815 -2.2324 -12.5291 0.1187 -2.2210 -6.1168 0.0000 0.0000 0.0000 21.1010 5.5487 -5.0907 -2.7262 -10.2380 29.7508 -1.1598 1.0503 -20.0398 -0.0221 -0.9603 2.6396 -2.3065 -1.2676 5.0544 0.0829 -1.8639 -2.6970 1.5612 -0.8348 -5.5605 -16.4243 -10.5676 -14.1426 10.9087 -13.7636 22.2896 4.5613 -6.5486 11.5467 -0.0000 -0.0000 0.0000 -89.1268 4.9248 13.1707 16.9993 -26.8569 -4.0870 -0.0000 -0.0000 6.7123 20.2245 20.8347 7.4652 -7.1250 0.0000 -0.0000 -8.5367 51.8576 -1.4503 -0.0000 -0.0000 0.0000 89.9388 -4.9684 19.1021 -14.4090 23.3164 -2.9881 0.0000 0.0000 7.4726 -15.3648 7.8299 -2.1439 7.1250 -0.0000 -0.0000 8.3265 -21.8938 4.6695
16.7173 17.8865 -9.4202 2.8049 -13.8546 -0.5609 0.0000 0.0000 0.0000 -24.5022 -3.3731 -3.4106 1.3721 7.4131 20.9452 0.4808 -2.3734 -12.4965 0.1111 -2.1490 -5.9177 0.0000 0.0000 0.0000 21.1558 5.5663 -5.0673 -2.7197 -10.2269 29.7146 -1.1551 0.9598 -20.0243 -0.0198 -0.9080 2.4958 -2.3002 -1.2980 5.0163 0.0648 -1.9007 -2.5115 1.5380 -0.8582 -5.3433 -16.1425 -10.5941 -14.5650 10.7670 -13.7577 22.2737 4.4478 -6.5199 11.5864 -0.0000 -0.0000 0.0000 -89.0062 4.4049 13.2034 16.9104 -26.7395 -4.0469 -0.0000 -0.0000 6.6369 20.9831 19.9999 7.4730 -7.1250 0.0000 -0.0000 -7.5132 51.1251 -1.1392 -0.0000 -0.0000 0.0000 89.9865 -4.4604 19.1720 -14.3731 23.2655 -2.9739 0.0000 0.0000 7.5027 -15.1006 8.1282 -2.1848 7.1250 -0.0000 -0.0000 8.5079 -21.6000 4.8308
16.7122 17.8869 -9.4223 2.7809 -13.7799 -0.5179 0.0000 0.0000 0.0000 -24.4319 -3.3193 -3.4880 1.3728 7.4150 20.9508 0.4783 -2.5268 -12.4397 0.1053 -2.0923 -5.7609 0.0000 0.0000 0.0000 21.2089 5.5528 -5.0997 -2.7162 -10.2207 29.6946 -1.1515 0.8902 -20.0133 -0.0185 -0.8786 2.4149 -2.2850 -1.3314 4.9701 0.0586 -1.9416 -2.4101 1.5237 -0.8819 -5.2097 -15.9724 -10.6286 -14.8247 10.6204 -13.7665 22.2869 4.3541 -6.5145 11.6168 -0.0000 -0.0000 0.0000 -88.9326 4.0429 13.2208 16.8169 -26.6158 -4.0050 -0.0000 -0.0000 6.7373 21.3382 19.5189 7.4364 -7.1250 0.0000 -0.0000 -7.0170 50.6843 -0.9871 -0.0000 -0.0000 0.0000 90.0169 -4.0981 19.1547 -14.3067 23.1714 -2.9477 0.0000 0.0000 7.5421 -15.2357 8.3142 -2.2554 7.1250 -0.0000 -0.0000 8.4044 -21.4036 4.8087
16.7087 17.8894 -9.4205 2.7086 -13.7407 -0.4133 0.0000 0.0000 0.0000 -24.3270 -3.2964 -3.6060 1.3745 7.4193 20.9636 0.4796 -2.6290 -12.4420 0.1053 -2.0929 -5.7626 0.0000 0.0000 0.0000 21.2819 5.5476 -5.1773 -2.7144 -10.2177 29.6848 -1.1533 0.9727 -20.0044 -0.0248 -1.0167 2.7946 -2.1685 -1.3296 4.9015 0.0588 -1.9306 -2.5004 1.4572 -0.8790 -5.2692 -15.9997 -10.6227 -14.5331 10.5313 -13.7702 22.2413 4.3353 -6.5397 11.5381 0.0000 0.0000 0.0000 -88.8947 4.2122 13.4172 16.8950 -26.7192 -4.0400 -0.0000 -0.0000 6.6431 21.5334 19.5400 7.5181 -7.1250 0.0000 -0.0000 -6.8312 50.7389 -0.9699 0.0000 0.0000 0.0000 90.0234 -4.1618 18.9437 -14.2872 23.1438 -2.9401 0.0000 0.0000 7.9214 -15.6986 7.9354 -2.2221 7.1250 -0.0000 -0.0000 8.0814 -21.7710 4.5521
